# xmcd
#
# Track frame offsets:
#   150
#   18682
#   36225
#   52840
#   66645
#   83010
#   98140
#   109892
#   126597
#   143282
#   155875
#   167830
#   186855
#   201545
#
# Disc length: 2931 seconds
#
# Revision: 0
# Processed by: cddbd v1.4PL0 Copyright (c) Steve Scherf et al.
# Submitted via: uFREEDB ActiveX Control 1.5
#
DISCID=ce0b710e
DTITLE=Jad and Jefferson - A Emoção da Música Sertaneja Vol.lV
DYEAR=1900
DGENRE=sertanejo
TTITLE0=as marcas que eu te fiz
TTITLE1=meu sertão
TTITLE2=nóis capota mais num breca
TTITLE3=terra de violeiro
TTITLE4=apaixonado eu tô
TTITLE5=como reconquistar o meu amor
TTITLE6=forrózão
TTITLE7=com a viola e deus
TTITLE8=quero essa mulher(promessa)
TTITLE9=as andorinhas
TTITLE10=estou num bagaço
TTITLE11=boi furacão
TTITLE12=escolta de vagalume
TTITLE13=minha rainha
EXTD=
EXTT0=
EXTT1=
EXTT2=
EXTT3=
EXTT4=
EXTT5=
EXTT6=
EXTT7=
EXTT8=
EXTT9=
EXTT10=
EXTT11=
EXTT12=
EXTT13=
PLAYORDER=
